<svg width="280" height="280" viewBox="0 0 280 280" fill="none" xmlns="http://www.w3.org/2000/svg">
<path d="M135.608 8C138.121 8 140.651 8 143.181 8C143.163 26.2723 143.181 44.5447 143.199 62.7989C143.561 67.1727 141.049 71.1128 141.229 75.4504C141.121 80.4749 141.428 85.5174 141.139 90.5418C140.271 90.5237 138.536 90.4695 137.669 90.4514C137.163 83.0594 138.699 75.3962 135.717 68.3837C135.41 48.2678 135.681 28.1339 135.608 8Z" fill="#FF734E"/>
<path d="M110.524 11.199C112.855 10.8376 115.187 10.4761 117.536 10.1327C121.476 30.6642 125.94 51.1234 129.626 71.6911C128.163 78.6494 130.747 85.4089 131.632 92.2407C126.771 92.5841 127.331 87.8488 126.518 84.6137C125.795 79.4446 122.145 75.2335 121.566 70.0284C118.169 50.3644 113.108 30.9715 110.524 11.199Z" fill="#FF734E"/>
<path d="M161.398 9.75313C163.801 10.1869 166.205 10.6207 168.608 11.0544C165.753 29.1822 161.614 47.1111 158.181 65.1485C152.325 72.3418 153.898 82.7521 150.952 91.2286C150.12 91.3913 148.458 91.7347 147.626 91.9154C147.879 82.1738 152.38 72.8659 150.807 63.0339C154.223 45.2495 157.819 27.5013 161.398 9.75313Z" fill="#FF734E"/>
<path d="M85.4398 19.7298C87.7892 18.7176 90.1566 17.7236 92.5241 16.7115C100.892 37.0081 109.422 57.2323 117.663 77.5831C118.277 83.4209 119.777 89.0417 122.452 94.3553C117.952 97.3555 118.06 91.572 116.307 89.3851C115.006 86.5476 112.151 84.7402 111.084 81.7581C102.5 61.1 94.1145 40.3517 85.4398 19.7298Z" fill="#FF734E"/>
<path d="M166.187 65.0581C172.91 48.81 179.687 32.58 186.337 16.2957C188.705 17.3079 191.108 18.3019 193.494 19.314C187.404 33.6644 181.53 48.1232 175.584 62.5459C174.753 64.787 173.398 66.7932 171.301 68.0222C167.217 76.9686 163.801 86.2041 159.771 95.1686L156.898 93.054C159.88 84.4329 164.163 76.3179 167.036 67.6607C166.819 67.0101 166.404 65.7088 166.187 65.0581Z" fill="#FF734E"/>
<path d="M62.9578 32.58C65.1626 31.2426 67.3855 29.9051 69.6084 28.5858C82.8554 48.7558 96.2108 68.8716 109.837 88.7887C109.566 89.349 109.006 90.5057 108.735 91.066C110.38 93.4336 112.006 95.8012 113.669 98.1508C112.91 98.7111 111.41 99.7955 110.669 100.356C108.699 97.9158 107.416 94.265 103.837 93.9396C90.3373 73.4081 76.4578 53.1115 62.9578 32.58Z" fill="#FF734E"/>
<path d="M184.331 65.9437C192.446 53.0754 201.12 40.5504 209.56 27.8809C211.639 29.2906 213.735 30.7004 215.849 32.1101C207.807 44.1651 199.801 56.2021 191.777 68.2572C190.801 70.0826 188.994 71.0766 187.169 71.8538C180.645 80.6556 175.386 90.3611 168.572 98.9099L166.584 98.8014L165.699 97.4278C171.41 86.6379 180.825 77.8181 184.331 65.9437Z" fill="#FF734E"/>
<path d="M43.494 49.9487C45.3374 48.0871 47.1808 46.2436 49.0422 44.4001C66.5723 62.2025 84.5362 79.6073 102.012 97.482C102.843 100.609 104.434 103.446 105.482 106.501C101.994 105.109 98 104.386 95.253 101.657C77.9759 84.451 60.8072 67.1185 43.494 49.9487Z" fill="#FF734E"/>
<path d="M201.518 72.1972C210.952 62.5278 220.638 53.1115 230.126 43.5145C231.934 45.2676 233.759 47.0388 235.602 48.81C226.729 57.9914 217.584 66.9016 208.584 75.9565C205.855 78.794 201.608 79.4447 199.06 82.5352C191.235 90.4695 183.319 98.3315 175.44 106.23C175.024 105.362 174.193 103.645 173.777 102.796C182.687 92.2768 194.777 84.3607 201.518 72.1972Z" fill="#FF734E"/>
<path d="M214.44 84.8667C225.355 77.4385 236.38 70.1729 247.349 62.817C248.741 64.9858 250.151 67.1366 251.56 69.3054C241.512 75.7396 231.717 82.5714 221.759 89.1502C220.006 90.3972 218.072 90.9213 215.94 90.7406C204.482 98.2411 193.151 105.959 181.747 113.567C181.205 112.808 180.12 111.272 179.578 110.513C189.735 103.645 199.982 96.9037 210.175 90.1081C212.199 88.8971 213.861 87.2163 214.44 84.8667Z" fill="#FF734E"/>
<path d="M27.8434 70.2633C29.3253 68.2029 30.8072 66.1426 32.3072 64.0822C52.3313 77.547 72.4277 90.8852 92.506 104.26C95.7048 106.194 97.6204 109.447 99.8252 112.357C97.7288 113.477 95.506 114.11 93.1204 114.236C71.6144 99.2171 49.4759 85.1198 27.8434 70.2633Z" fill="#FF734E"/>
<path d="M19.3133 86.4753C43.0783 96.3795 66.9156 106.157 90.6807 116.062C93.6988 116.857 93.6988 120.526 94.9819 122.803C92.7409 123.002 90.3735 124.448 88.1687 123.327C64.2591 113.513 40.4217 103.501 16.5121 93.6866C17.4338 91.2647 18.3735 88.861 19.3133 86.4753Z" fill="#FF734E"/>
<path d="M225.952 99.3978C237.392 94.6987 248.777 89.9092 260.235 85.2643C261.157 87.6139 262.096 89.9634 263.054 92.313C251.886 97.1025 240.572 101.567 229.44 106.41C228.843 106.085 227.651 105.416 227.072 105.091C213.482 110.875 199.855 116.568 186.157 122.044C185.831 121.231 185.163 119.604 184.819 118.791C197.379 113.17 210.283 108.272 222.916 102.832C224.56 102.29 225.572 101.151 225.952 99.3978Z" fill="#FF734E"/>
<path d="M234.518 116.712C245.813 114.128 257.253 112.085 268.62 109.826C269.072 112.375 269.542 114.923 269.994 117.489C256.602 119.279 243.5 124.574 229.91 123.327C215.94 126.02 202.042 129.111 188 131.514C188.199 130.611 188.56 128.84 188.741 127.936C202.819 124.394 217.295 122.478 231.41 119.044C232.187 118.465 233.741 117.309 234.518 116.712Z" fill="#FF734E"/>
<path d="M11.2532 111.146C37.7471 116.206 64.1507 121.755 90.6628 126.725C91.5303 129.472 92.2893 132.418 89.5784 134.442C62.976 129.436 36.5001 123.833 9.91579 118.7C10.3495 116.188 10.8014 113.658 11.2532 111.146Z" fill="#FF734E"/>
<path d="M235.313 137.244C236.849 135.906 238.621 135.292 240.663 135.418C251.09 135.328 261.518 135.509 271.964 135.382C271.964 137.967 271.982 140.533 272 143.118C260.813 143.118 249.627 143.208 238.458 143.082C236.452 141.618 234.139 140.895 231.663 141.184C217.512 141.22 203.361 141.238 189.211 141.202L189.428 137.768C204.681 136.792 220.024 137.858 235.313 137.244Z" fill="#FF734E"/>
<path d="M8 136.937C32.5422 136.828 57.0843 136.882 81.6446 136.828C84.3735 137.027 87.3373 136.467 89.9397 137.569C91.4217 139.774 90.1386 142.268 89.5783 144.527C62.506 144.365 35.4338 144.383 8.37956 144.509C8.23498 141.979 8.10843 139.449 8 136.937Z" fill="#FF734E"/>
<path d="M10.0966 162.492C36.6086 157.432 63.0122 151.811 89.5062 146.787C92.3435 148.612 91.6387 151.63 91.1146 154.432C64.5484 159.547 38.0363 165.041 11.4701 170.174C11.0002 167.607 10.5484 165.059 10.0966 162.492Z" fill="#FF734E"/>
<path d="M188.126 150.853C188.379 149.913 188.885 148.052 189.139 147.112C203.398 149.986 217.639 153.04 231.952 155.534C245 154.504 257.524 159.528 270.319 161.336C269.777 163.848 269.253 166.36 268.729 168.872C258.518 166.794 248.271 164.788 238.06 162.764C234.988 162.438 232.964 159.8 230.072 159.131C216.102 156.311 202.114 153.582 188.126 150.853Z" fill="#FF734E"/>
<path d="M187.078 156.944C202.946 162.185 217.53 171.457 234.157 174.078C244.006 178.162 253.892 182.175 263.687 186.44C262.657 188.753 261.626 191.067 260.632 193.398C250.693 189.259 240.735 185.175 230.795 181.072C227.361 179.97 225.446 176.608 222.157 175.307C209.651 169.848 196.747 165.276 184.458 159.293L187.078 156.944Z" fill="#FF734E"/>
<path d="M17 187.524C40.4217 177.783 63.8614 168.077 87.3012 158.336C90.3735 156.095 93.6988 157.83 95.9397 160.36C93.8614 162.456 92.0542 165.041 89.1084 165.981C66.012 175.469 42.9518 185.066 19.8735 194.645C18.8976 192.26 17.9578 189.892 17 187.524Z" fill="#FF734E"/>
<path d="M181.53 165.872C185.506 166.198 188.398 169.541 191.741 171.403C200.379 176.861 208.44 183.259 217.422 188.121C218.145 188.157 219.59 188.229 220.295 188.247C230.958 195.314 241.602 202.381 252.193 209.52C250.783 211.653 249.373 213.785 247.982 215.936C237.084 208.616 226.151 201.405 215.343 194.013C214.602 192.097 213.663 190.253 211.765 189.277C201.608 182.373 191.163 175.849 181.187 168.692C181.259 167.987 181.44 166.577 181.53 165.872Z" fill="#FF734E"/>
<path d="M28.5844 210.731C50.1807 196.055 71.994 181.687 93.6446 167.065C95.2891 167.119 98.5964 167.228 100.241 167.3C98.5241 170.481 97.5482 174.511 94.006 176.21C73.5301 189.675 53.2892 203.483 32.8133 216.966C31.4036 214.888 29.994 212.809 28.5844 210.731Z" fill="#FF734E"/>
<path d="M174.157 175.795C175.006 174.873 175.855 173.951 176.723 173.047C185.524 181.994 194.542 190.723 203.271 199.742C204.319 199.995 206.398 200.501 207.446 200.772C216.952 210.622 226.711 220.274 236.488 229.853C234.717 231.75 232.946 233.63 231.175 235.528C221.741 226.093 212.253 216.713 202.855 207.225C200.578 205.038 200.217 201.604 197.94 199.435C190.006 191.555 182.145 183.602 174.157 175.795Z" fill="#FF734E"/>
<path d="M104.669 173.879C107.795 176.12 105.283 178.831 103.259 180.638C103.205 182.916 101.958 184.741 100.313 186.205C83.4338 202.905 66.753 219.786 49.9097 236.504C48.1205 234.642 46.3494 232.799 44.5603 230.973C62.5422 213.116 80.3976 195.115 98.3614 177.24C100.928 177.204 103.024 176.084 104.669 173.879Z" fill="#FF734E"/>
<path d="M111.608 180.132C112.602 180.982 113.596 181.813 114.608 182.681C112.765 185.753 109.512 188.609 110.181 192.549C97.0602 212.502 83.8493 232.437 70.2951 252.119C68.2349 250.673 66.1746 249.245 64.1325 247.8C76.9638 228.66 89.7409 209.466 102.482 190.253C103.801 188.302 105.175 186.06 107.886 185.952C109.133 184.018 110.361 182.066 111.608 180.132Z" fill="#FF734E"/>
<path d="M168.084 184.054C166.277 182.247 167.506 180.385 169.241 179.211C175.241 187.832 180.898 196.67 186.753 205.399C187.711 207.279 189.464 208.399 191.47 208.978C200.199 221.593 208.476 234.516 217.114 247.185C214.946 248.613 212.813 250.059 210.681 251.505C202.512 238.799 193.819 226.437 185.669 213.731C182.56 202.453 173.831 194.013 168.084 184.054Z" fill="#FF734E"/>
<path d="M112.548 198.115C116.036 194.212 118.06 189.332 120.97 185.157L123.03 185.916C122.651 190.272 119.795 193.977 119.434 198.35C119.181 203.574 116.524 208.2 114.645 212.954C107.705 229.835 100.602 246.625 93.7711 263.542C91.4217 262.656 89.0723 261.752 86.741 260.885C94.9819 239.829 103.946 219.045 112.548 198.115Z" fill="#FF734E"/>
<path d="M157.837 186.06C158.705 185.681 160.44 184.922 161.307 184.542C166.349 194.79 168.482 206.773 176.163 215.448C182.488 230.268 188.47 245.233 194.705 260.09C192.337 261.084 189.988 262.078 187.639 263.09C181.169 246.787 173.741 230.81 167.849 214.309C167.94 213.55 168.139 212.05 168.247 211.309C164.94 202.833 161.361 194.447 157.837 186.06Z" fill="#FF734E"/>
<path d="M150.428 198.405C150.391 194.844 146.199 188.536 151.837 187.362C154.765 197.248 154.783 208.002 159.916 217.147C163.512 234.244 166.693 251.432 170.271 268.53C167.705 269 165.139 269.47 162.608 269.958C159.066 251.306 155.108 232.726 151.602 214.056C154.458 209.267 150.898 203.556 150.428 198.405Z" fill="#FF734E"/>
<path d="M124.277 203.772C130.494 200.646 124.566 187.633 132.952 188.211C132.012 193.543 130.892 198.856 129.952 204.188C131.723 206.881 130.693 210.026 130.187 212.954C126.301 232.039 122.578 251.161 118.747 270.265C116.867 269.903 113.126 269.144 111.247 268.765C115.584 247.113 119.687 225.388 124.277 203.772Z" fill="#FF734E"/>
<path d="M138.807 189.241C139.783 189.296 141.699 189.404 142.657 189.458C143.452 196.85 140.524 205.345 144.428 211.996C144.699 232.003 144.464 251.993 144.555 272C141.952 271.91 139.35 271.837 136.765 271.747C136.873 251.342 136.747 230.919 136.837 210.514C141.03 204.441 137.813 196.2 138.807 189.241Z" fill="#FF734E"/>
</svg>
